<?xml version="1.0" encoding="UTF-8"?>
<svg id="Layer_2" data-name="Layer 2" xmlns="http://www.w3.org/2000/svg" viewBox="0 0 318.01 127.04">
  <defs>
    <style>
      .cls-1 {
        fill: #16205b;
      }

      .cls-2 {
        fill: #f15928;
      }
    </style>
  </defs>
  <g id="Layer_1-2" data-name="Layer 1">
    <g>
      <polygon class="cls-2" points="70.64 103.27 69.5 108.64 .99 108.64 1.6 103.27 70.64 103.27"/>
      <polygon class="cls-2" points="296.15 103.27 282.64 122.25 268.02 122.25 277.76 108.64 230.38 108.64 231.52 103.27 296.15 103.27"/>
      <g>
        <path class="cls-1" d="M109.36,10.17c-3.32,0-6.39.38-9.19,1.12-2.8.77-5.29,1.87-7.44,3.35-2.15,1.51-3.95,3.35-5.41,5.53-1.43,2.2-2.49,4.76-3.11,7.68l-3.33,15.72-2.01,9.42c-.69,3.3-.98,6.27-.84,8.88.24,4.66,1.91,12.17,16.79,12.17,13.21,0,22.08-4.28,25.69-21.26l.58-2.75h-13.83l-1.12,5.21c-.24,1.17-1.03,7.3-8.32,7.3-2.9,0-6.68-1.24-5.96-4.54.14-.72,2.08-9.88,2.79-13.25h27.57l3.59-16.89c2.51-11.79-2.85-17.68-16.46-17.68ZM112.04,27.63l-1.36,6.34h-13.71l1.34-6.34c.5-2.32,1.46-3.97,2.92-4.9,1.44-.96,3.28-1.43,5.57-1.43s3.73.5,4.62,1.48,1.1,2.61.62,4.85Z"/>
        <polygon class="cls-1" points="161.53 60.85 131.65 60.85 131.84 59.98 142.38 54.69 154.01 0 139.88 0 124.28 73.36 158.88 73.36 161.53 60.85"/>
        <path class="cls-1" d="M212.86,15.42c-3.45-3.5-8.32-5.25-14.6-5.25s-11.78,1.75-16.75,5.25c-4.42,3.14-7.3,7.85-8.63,14.13l-5.33,25.09c-2.75,12.92,2.97,19.38,17.14,19.38s22.71-6.46,25.46-19.38l5.33-25.09c1.33-6.28.46-10.99-2.63-14.13ZM201.49,27.18l-3.09,14.53-3.41,16.03c-.29,1.39-1.07,2.54-2.32,3.44-1.25.9-3.09,1.35-5.54,1.35s-4.06-.45-4.92-1.35c-.86-.9-1.15-2.05-.85-3.44l6.47-30.48c.68-3.23,3.53-5.53,6.83-5.53h1.15c4.56,0,6.45,1.82,5.68,5.46Z"/>
        <path class="cls-1" d="M303.55,0l-2.15,10.13-14.27.04c-2,0-3.78.27-5.34.79-1.56.53-2.93,1.22-4.13,2.08-1.2.86-2.22,1.85-3.07,2.96-.85,1.11-1.57,2.27-2.17,3.46-.6,1.2-1.08,2.38-1.44,3.56-.36,1.18-.65,2.27-.86,3.27l-6.87,32.13c-1.71,8.03,4.41,15.6,12.62,15.6,3.04,0,5.88-1.07,8.12-2.88,2.23-1.81,3.87-4.36,4.5-7.34l.31-1.45h1.92l-2.34,11h14.04L318.01,0h-14.46ZM297.9,26.59l-5.69,26.93c-.23,1.07-1.16,8.09-8.47,8.09-6.62,0-5.23-6.8-4.95-8.09l4.99-23.63c.24-1.14.48-2.2.72-3.17.24-.98.62-1.83,1.15-2.57.53-.74,1.3-1.31,2.31-1.73,1-.42,2.38-.62,4.13-.62l15.22-.04-.15.71-9.25,4.13Z"/>
        <polygon class="cls-1" points="72.03 0 52.03 62.27 50.67 62.27 55.26 0 42.38 0 19.24 62.27 17.74 62.27 26.72 0 .26 0 0 1.25 12.3 8.8 8.64 41.07 4.99 73.36 27.47 73.36 43.24 22.17 44.56 22.17 38.9 73.36 60.23 73.36 85.95 0 72.03 0"/>
        <path class="cls-1" d="M264.12,18.99c-.6-1.93-1.66-3.55-3.16-4.86-1.5-1.3-3.39-2.29-5.67-2.96-2.27-.67-4.82-1-7.62-1-4.11,0-7.6.43-10.47,1.29-2.86.86-5.26,2.07-7.17,3.63-1.92,1.56-3.42,3.44-4.52,5.65-1.09,2.21-1.93,4.67-2.51,7.4l-.26,1.21h13.67l.59-2.79c.14-.67.4-1.31.78-1.92.38-.61.87-1.15,1.49-1.61.61-.46,1.34-.82,2.17-1.1s1.77-.42,2.8-.42c4.36,0,6.19,1.68,5.47,5.05l-1.36,6.42h-9.3c-2.86,0-5.52.46-7.98,1.39-2.46.93-4.66,2.25-6.6,3.96-1.93,1.71-3.56,3.76-4.89,6.17-1.33,2.4-2.31,5.06-2.93,7.98l-1.33,6.28c-1.67,7.87,4.33,15.27,12.38,15.27,2.97,0,5.74-1.03,7.93-2.79,2.19-1.76,3.79-4.25,4.43-7.15l.38-1.73h1.92l-2.34,11h14.05l10.13-47.64c.54-2.56.51-4.8-.09-6.73ZM243.29,56.73c-.12.58-.35,1.17-.69,1.75-.33.58-.79,1.11-1.37,1.56-.59.46-1.32.83-2.2,1.13-.88.29-1.93.44-3.16.44-4.42,0-6.24-1.85-5.45-5.54l1.6-7.63c.5-2.38,2.59-4.08,5.02-4.08h8.88l-2.63,12.38Z"/>
      </g>
      <g>
        <polygon class="cls-2" points="94.2 107.95 95.31 102.75 87.26 102.75 88.9 95.03 97.29 95.03 98.43 89.66 84.54 89.66 77.61 122.25 92.06 122.25 93.22 116.82 84.27 116.82 86.15 107.95 94.2 107.95"/>
        <polygon class="cls-2" points="119.61 94.62 115.02 94.62 108.56 105.74 108.04 105.74 106.85 94.62 101.74 94.62 103.46 107.86 95.27 122.25 100.06 122.25 107.15 110.02 107.67 110.02 109.17 122.25 114.04 122.25 112.07 107.86 119.61 94.62"/>
        <path class="cls-2" d="M140.3,98.26c-.03-.48-.11-.96-.24-1.4-.13-.42-.34-.8-.62-1.12-.28-.32-.66-.58-1.12-.78-.46-.2-1.06-.3-1.76-.3l-13.45-.02-6.88,32.39h5.5l1.67-7.86h.77s1.47,3.37,5.29,3.37c4.31,0,6.72-3.31,7.56-7.22l3.01-14.15c.09-.43.17-.92.23-1.43.06-.5.07-1,.05-1.49ZM134.08,103.35l-2.28,10.72c-.12.56-.3,1.1-.55,1.6-.26.52-.58.99-.96,1.38-.39.4-.84.72-1.34.95-.51.24-1.06.36-1.64.36s-1.1-.12-1.51-.36c-.41-.23-.74-.55-.98-.94-.24-.39-.38-.85-.44-1.38-.05-.51-.01-1.05.11-1.61l3.19-15.02h3.73c.66.01,1.2.08,1.61.22.46.15.8.42,1.03.8.21.36.31.83.3,1.39-.01.51-.1,1.14-.26,1.89Z"/>
        <path class="cls-2" d="M157.1,94.65h-7.44c-.7,0-1.34.12-1.92.34-.58.23-1.1.55-1.55.95-.45.4-.83.87-1.14,1.4-.31.54-.53,1.13-.67,1.75l-4.92,23.15h5.5l4.82-22.68h6.27l1.05-4.93Z"/>
        <path class="cls-2" d="M169.38,94.34c-1.47,0-2.84.16-4.07.5-1.2.32-2.27.8-3.19,1.43-.9.63-1.67,1.41-2.28,2.33-.61.93-1.06,2.04-1.33,3.29l-2.46,11.56c-.31,1.46-.44,2.79-.38,3.94.06,1.11.35,2.05.86,2.81.51.76,1.29,1.34,2.3,1.74,1.04.41,2.42.62,4.09.62,1.8,0,3.36-.2,4.63-.59,1.24-.38,2.3-.95,3.15-1.7.85-.74,1.55-1.69,2.09-2.81.56-1.17,1.01-2.55,1.34-4.1l.23-1.05h-5.31l-.46,2.18c-.12.54-.25,1.02-.41,1.45-.19.5-.46.94-.82,1.32-.37.39-.84.68-1.39.88-.52.19-1.14.28-1.92.28-.82,0-1.44-.11-1.88-.34-.46-.24-.78-.55-.97-.93-.18-.38-.26-.8-.23-1.27.02-.41.08-.83.17-1.24l1.18-5.56h12.67c.02-.1.05-.21.08-.33.09-.38.19-.82.31-1.32.11-.47.23-1,.36-1.62l.83-3.92c1.08-5.08-1.28-7.55-7.21-7.55ZM171.3,101.8l-.74,3.48h-7.46l.74-3.48c.27-1.26.83-2.17,1.66-2.72.78-.51,1.76-.77,2.94-.77s1.98.28,2.48.83c.51.57.64,1.46.38,2.66Z"/>
        <path class="cls-2" d="M191.3,94.34c-1.23,0-2.44.16-3.62.45-1.16.28-2.23.71-3.18,1.28-.93.55-1.73,1.25-2.38,2.09-.64.82-1.08,1.81-1.31,2.94-.37,1.79-.34,3.07.08,3.81.63,1.13,1.42,2.03,2.34,2.67l4.07,2.79c.49.34.92.64,1.31.93.44.32.81.68,1.11,1.06.31.4.54.85.67,1.33.14.52.14,1.13-.01,1.82-.33,1.53-1.85,2.76-3.38,2.77h-1.63c-1.56.02-2.56-1.23-2.24-2.79l.54-2.65-5.41.04-.35,1.71c-1.11,5.42,1.34,8.03,7.48,7.98,1.48-.01,2.85-.19,4.07-.54,1.2-.34,2.28-.85,3.2-1.5.91-.65,1.68-1.46,2.29-2.41.62-.96,1.06-2.09,1.32-3.36.44-2.16.32-3.8-.38-4.87-.48-.73-.99-1.37-1.52-1.9-.54-.53-1.09-.99-1.63-1.36l-5.36-3.59c-1.5-1-.28-3.66,1.71-3.71.01,0,.03,0,.04,0h1.75c1.49-.02,2.45,1.17,2.14,2.66v.07s5.65-.04,5.65-.04c1.05-5.2-1.35-7.7-7.36-7.66Z"/>
        <path class="cls-2" d="M213.13,94.27c-1.23,0-2.44.16-3.62.45-1.16.28-2.23.71-3.18,1.28-.93.55-1.73,1.25-2.38,2.09-.64.82-1.08,1.81-1.31,2.94-.37,1.79-.34,3.07.08,3.81.63,1.13,1.42,2.03,2.34,2.67l4.07,2.79c.49.34.92.64,1.31.93.44.32.81.68,1.11,1.06.31.4.54.85.67,1.33.14.52.14,1.13-.01,1.82-.33,1.53-1.85,2.76-3.38,2.77h-1.63c-1.56.02-2.56-1.23-2.24-2.79l.54-2.65-5.41.04-.35,1.71c-1.11,5.42,1.34,8.03,7.48,7.98,1.48-.01,2.85-.19,4.07-.54,1.2-.34,2.28-.85,3.2-1.5.91-.65,1.68-1.46,2.29-2.41.62-.96,1.06-2.09,1.32-3.36.44-2.16.32-3.8-.38-4.87-.48-.73-.99-1.37-1.52-1.9-.54-.53-1.09-.99-1.63-1.36l-5.36-3.59c-1.5-1-.28-3.66,1.71-3.71.01,0,.03,0,.04,0h1.75c1.49-.02,2.45,1.17,2.14,2.66v.07s5.65-.04,5.65-.04c1.05-5.2-1.35-7.7-7.36-7.66Z"/>
      </g>
    </g>
  </g>
</svg>