<?xml version="1.0" encoding="UTF-8"?>
<svg id="Layer_2" data-name="Layer 2" xmlns="http://www.w3.org/2000/svg" viewBox="0 0 318.02 127.04">
  <defs>
    <style>
      .cls-1 {
        fill: #fff;
      }
    </style>
  </defs>
  <g id="Layer_1-2" data-name="Layer 1">
    <g>
      <polygon class="cls-1" points="70.64 103.27 69.5 108.64 .99 108.64 1.6 103.27 70.64 103.27"/>
      <polygon class="cls-1" points="296.15 103.27 282.64 122.25 268.02 122.25 277.76 108.64 230.38 108.64 231.52 103.27 296.15 103.27"/>
      <g>
        <path class="cls-1" d="M109.37,10.17c-3.33,0-6.39.38-9.19,1.12-2.8.77-5.29,1.87-7.44,3.35-2.15,1.51-3.94,3.35-5.4,5.53-1.44,2.2-2.49,4.76-3.11,7.68l-3.33,15.71-2.01,9.43c-.69,3.3-.98,6.26-.84,8.87.24,4.66,1.92,12.17,16.8,12.17,13.2,0,22.07-4.28,25.69-21.26l.57-2.75h-13.82l-1.13,5.21c-.24,1.18-1.03,7.3-8.32,7.3-2.9,0-6.68-1.24-5.96-4.55.14-.72,2.08-9.88,2.79-13.25h27.56l3.59-16.88c2.51-11.8-2.84-17.68-16.45-17.68ZM112.04,27.63l-1.36,6.34h-13.7l1.33-6.34c.51-2.32,1.46-3.97,2.92-4.9,1.44-.96,3.28-1.44,5.58-1.44,2.17,0,3.73.5,4.61,1.48.89.98,1.1,2.61.62,4.86Z"/>
        <polygon class="cls-1" points="161.53 60.86 131.65 60.86 131.84 59.98 142.38 54.69 154.01 0 139.88 0 124.28 73.36 158.88 73.36 161.53 60.86"/>
        <path class="cls-1" d="M212.86,15.42c-3.45-3.5-8.31-5.25-14.59-5.25s-11.78,1.75-16.75,5.25c-4.42,3.14-7.29,7.85-8.63,14.13l-5.33,25.09c-2.75,12.93,2.96,19.39,17.14,19.39s22.71-6.46,25.46-19.39l5.33-25.09c1.33-6.28.46-10.99-2.63-14.13ZM201.49,27.18l-3.09,14.52-3.4,16.03c-.3,1.39-1.07,2.53-2.32,3.44-1.25.9-3.09,1.35-5.54,1.35s-4.06-.45-4.92-1.35c-.86-.91-1.15-2.05-.85-3.44l6.47-30.48c.68-3.23,3.53-5.53,6.83-5.53h1.14c4.56,0,6.45,1.82,5.68,5.46Z"/>
        <path class="cls-1" d="M303.55,0l-2.15,10.13-14.26.04c-2,0-3.78.27-5.34.79-1.56.53-2.93,1.23-4.13,2.09-1.2.86-2.22,1.85-3.07,2.96-.85,1.11-1.57,2.26-2.17,3.46-.6,1.19-1.09,2.38-1.45,3.56-.36,1.18-.65,2.27-.86,3.27l-6.87,32.13c-1.71,8.03,4.41,15.6,12.62,15.6,3.05,0,5.88-1.07,8.12-2.88,2.23-1.81,3.86-4.36,4.5-7.34l.31-1.45h1.92l-2.34,11h14.04L318.02,0h-14.47ZM297.9,26.59l-5.69,26.93c-.23,1.07-1.16,8.09-8.47,8.09-6.62,0-5.22-6.8-4.95-8.09l4.99-23.63c.24-1.14.48-2.2.71-3.17.24-.98.62-1.83,1.15-2.57.54-.73,1.3-1.31,2.31-1.73,1-.41,2.38-.62,4.13-.62l15.23-.04-.15.71-9.26,4.12Z"/>
        <polygon class="cls-1" points="72.03 0 52.03 62.27 50.67 62.27 55.26 0 42.38 0 19.24 62.27 17.74 62.27 26.72 0 .26 0 0 1.25 12.3 8.8 8.64 41.07 4.99 73.36 27.47 73.36 43.24 22.18 44.56 22.18 38.9 73.36 60.23 73.36 85.95 0 72.03 0"/>
        <path class="cls-1" d="M264.13,18.99c-.61-1.93-1.66-3.55-3.16-4.86-1.5-1.3-3.39-2.29-5.66-2.96-2.28-.67-4.82-1-7.63-1-4.11,0-7.6.43-10.46,1.29-2.87.86-5.26,2.07-7.17,3.63-1.92,1.55-3.42,3.44-4.52,5.65-1.09,2.21-1.93,4.67-2.5,7.4l-.26,1.2h13.67l.59-2.79c.14-.66.41-1.3.79-1.92.37-.61.87-1.14,1.48-1.6.61-.46,1.34-.83,2.18-1.1.83-.28,1.77-.42,2.79-.42,4.37,0,6.19,1.68,5.48,5.04l-1.37,6.42h-9.3c-2.85,0-5.52.47-7.98,1.4-2.46.93-4.66,2.25-6.6,3.96-1.93,1.71-3.56,3.76-4.89,6.16-1.33,2.41-2.31,5.07-2.93,7.99l-1.33,6.27c-1.66,7.87,4.34,15.28,12.38,15.28,2.97,0,5.74-1.04,7.93-2.8,2.18-1.76,3.79-4.24,4.42-7.14l.39-1.73h1.91l-2.33,11h14.04l10.13-47.64c.54-2.56.51-4.8-.09-6.73ZM243.29,56.73c-.12.58-.35,1.17-.69,1.75-.33.58-.79,1.1-1.37,1.56-.58.46-1.32.84-2.2,1.13-.88.29-1.93.44-3.15.44-4.42,0-6.24-1.85-5.45-5.55l1.59-7.63c.5-2.38,2.59-4.08,5.02-4.08h8.88l-2.63,12.38Z"/>
      </g>
      <g>
        <polygon class="cls-1" points="94.2 107.95 95.31 102.75 87.26 102.75 88.9 95.03 97.29 95.03 98.43 89.66 84.54 89.66 77.61 122.25 92.06 122.25 93.22 116.82 84.27 116.82 86.15 107.95 94.2 107.95"/>
        <polygon class="cls-1" points="119.61 94.63 115.02 94.63 108.56 105.74 108.04 105.74 106.85 94.63 101.74 94.63 103.46 107.86 95.27 122.25 100.06 122.25 107.15 110.02 107.67 110.02 109.17 122.25 114.04 122.25 112.07 107.87 119.61 94.63"/>
        <path class="cls-1" d="M140.3,98.26c-.03-.48-.11-.95-.24-1.4-.13-.42-.34-.8-.62-1.12-.28-.32-.66-.58-1.12-.78-.46-.2-1.06-.29-1.76-.29l-13.45-.02-6.89,32.39h5.5l1.67-7.86h.78s1.46,3.37,5.29,3.37c4.31,0,6.72-3.31,7.56-7.22l3-14.15c.1-.43.17-.91.23-1.43.06-.49.08-1,.05-1.49ZM134.08,103.35l-2.28,10.71c-.12.57-.3,1.1-.55,1.61-.26.52-.58.98-.96,1.37-.39.4-.85.72-1.34.95-.51.24-1.06.36-1.64.36s-1.1-.11-1.52-.35c-.41-.24-.74-.55-.98-.94-.24-.39-.38-.85-.43-1.38-.05-.51-.02-1.05.1-1.62l3.19-15.02h3.74c.66.01,1.19.09,1.6.22.46.16.81.43,1.03.81.21.35.31.82.3,1.39-.01.51-.1,1.14-.26,1.89Z"/>
        <path class="cls-1" d="M157.1,94.65h-7.44c-.7,0-1.34.12-1.92.34-.58.23-1.1.55-1.55.95-.45.4-.83.87-1.14,1.4-.31.54-.53,1.13-.67,1.75l-4.92,23.15h5.5l4.82-22.68h6.27l1.05-4.93Z"/>
        <path class="cls-1" d="M169.39,94.34c-1.47,0-2.84.16-4.07.5-1.2.32-2.27.8-3.19,1.43-.9.62-1.67,1.41-2.28,2.33-.61.93-1.06,2.04-1.33,3.29l-2.45,11.56c-.31,1.46-.44,2.78-.38,3.93.06,1.11.35,2.06.87,2.82.51.75,1.28,1.34,2.3,1.74,1.04.41,2.42.61,4.09.61,1.8,0,3.36-.2,4.63-.59,1.25-.38,2.3-.95,3.15-1.7.85-.74,1.55-1.69,2.09-2.81.56-1.17,1.01-2.55,1.34-4.1l.23-1.05h-5.31l-.47,2.18c-.11.54-.25,1.02-.41,1.45-.18.5-.46.95-.82,1.32-.37.39-.83.69-1.38.88-.52.19-1.15.28-1.92.28-.82,0-1.44-.11-1.88-.34-.46-.23-.79-.54-.98-.93-.18-.37-.26-.8-.23-1.27.03-.41.08-.82.17-1.23l1.18-5.56h12.68c.02-.1.05-.21.07-.33.09-.38.19-.82.31-1.32.11-.47.23-1,.37-1.62l.83-3.92c1.08-5.08-1.28-7.55-7.21-7.55ZM171.31,101.8l-.74,3.48h-7.46l.74-3.48c.27-1.26.83-2.18,1.66-2.72.78-.51,1.77-.77,2.94-.77s1.98.28,2.48.82c.51.57.64,1.46.38,2.67Z"/>
        <path class="cls-1" d="M191.3,94.34c-1.23,0-2.44.16-3.62.45-1.16.28-2.23.71-3.18,1.28-.93.55-1.73,1.25-2.38,2.09-.64.82-1.08,1.81-1.31,2.94-.37,1.79-.34,3.07.08,3.81.63,1.13,1.42,2.03,2.34,2.67l4.07,2.79c.49.34.92.64,1.31.93.44.32.81.68,1.11,1.06.31.4.54.85.67,1.33.14.52.14,1.13-.01,1.82-.33,1.53-1.85,2.76-3.38,2.77h-1.63c-1.56.02-2.56-1.23-2.24-2.79l.54-2.65-5.41.04-.35,1.71c-1.11,5.42,1.34,8.03,7.48,7.98,1.48-.01,2.85-.19,4.07-.54,1.2-.34,2.28-.85,3.2-1.5.91-.65,1.68-1.46,2.29-2.41.62-.96,1.06-2.09,1.32-3.36.44-2.16.32-3.8-.38-4.87-.48-.73-.99-1.37-1.52-1.9-.54-.53-1.09-.99-1.63-1.36l-5.36-3.59c-1.5-1-.28-3.66,1.71-3.71.01,0,.03,0,.04,0h1.75c1.49-.02,2.45,1.17,2.14,2.66v.07s5.65-.04,5.65-.04c1.05-5.2-1.35-7.7-7.36-7.66Z"/>
        <path class="cls-1" d="M213.13,94.27c-1.23,0-2.44.16-3.62.45-1.16.28-2.23.71-3.18,1.28-.93.55-1.73,1.25-2.38,2.09-.64.82-1.08,1.81-1.31,2.94-.37,1.79-.34,3.07.08,3.81.63,1.13,1.42,2.03,2.34,2.67l4.07,2.79c.49.34.92.64,1.31.93.44.32.81.68,1.11,1.06.31.4.54.85.67,1.33.14.52.14,1.13-.01,1.82-.33,1.53-1.85,2.76-3.38,2.77h-1.63c-1.56.02-2.56-1.23-2.24-2.79l.54-2.65-5.41.04-.35,1.71c-1.11,5.42,1.34,8.03,7.48,7.98,1.48-.01,2.85-.19,4.07-.54,1.2-.34,2.28-.85,3.2-1.5.91-.65,1.68-1.46,2.29-2.41.62-.96,1.06-2.09,1.32-3.36.44-2.16.32-3.8-.38-4.87-.48-.73-.99-1.37-1.52-1.9-.54-.53-1.09-.99-1.63-1.36l-5.36-3.59c-1.5-1-.28-3.66,1.71-3.71.01,0,.03,0,.04,0h1.75c1.49-.02,2.45,1.17,2.14,2.66v.07s5.65-.04,5.65-.04c1.05-5.2-1.35-7.7-7.36-7.66Z"/>
      </g>
    </g>
  </g>
</svg>